<?xml version="1.0" encoding="UTF-8" standalone="no" ?>
<!DOCTYPE svg PUBLIC "-//W3C//DTD SVG 1.1//EN" "http://www.w3.org/Graphics/SVG/1.1/DTD/svg11.dtd">
<svg xmlns="http://www.w3.org/2000/svg" xmlns:xlink="http://www.w3.org/1999/xlink" version="1.1" width="1080" height="1080" viewBox="0 0 1080 1080" xml:space="preserve">
<desc>Created with Fabric.js 5.2.4</desc>
<defs>
</defs>
<g transform="matrix(1 0 0 1 540 540)" id="f0705ac9-8561-463e-8564-cd706454a004"  >
</g>
<g transform="matrix(1 0 0 1 540 540)" id="05a1ec15-e31d-4fcb-96ce-e0ccadd7f54d"  >
<rect style="stroke: none; stroke-width: 1; stroke-dasharray: none; stroke-linecap: butt; stroke-dashoffset: 0; stroke-linejoin: miter; stroke-miterlimit: 4; fill: rgb(255,255,255); fill-rule: nonzero; opacity: 1; visibility: hidden;" vector-effect="non-scaling-stroke"  x="-540" y="-540" rx="0" ry="0" width="1080" height="1080" />
</g>
<g transform="matrix(1 0 0 1 540 540)"  >
<path style="stroke: none; stroke-width: 1; stroke-dasharray: none; stroke-linecap: butt; stroke-dashoffset: 0; stroke-linejoin: round; stroke-miterlimit: 1.41; fill: rgb(225,5,66); fill-rule: nonzero; opacity: 1;" vector-effect="non-scaling-stroke"  transform=" translate(-414.36, -335.53)" d="M 104.293 1.275 C 67.178 7.901 61.68300000000001 46.623 58.82900000000001 58.937999999999995 C 48.293000000000006 104.404 58.27400000000001 283.217 10.03500000000001 551.297 C -1.5619999999999887 615.755 5.461000000000011 671.0830000000001 67.70000000000002 671.0600000000001 C 109.18800000000002 671.0600000000001 141.442 667.4570000000001 245.127 464.4630000000001 C 313.602 332.2420000000001 398.202 165.9480000000001 466.649 152.91300000000007 C 511.312 144.40600000000006 528.185 185.12100000000007 537.8820000000001 220.83900000000006 C 559.7810000000001 301.51400000000007 559.9230000000001 371.11 577.8030000000001 485.87100000000004 C 596.3760000000001 605.081 647.1090000000002 652.4870000000001 727.5070000000001 633.3580000000001 C 818.311 611.754 838.9250000000001 527.2260000000001 812.893 515.8130000000001 C 792.655 506.9400000000001 772.979 525.8130000000001 747.467 531.3360000000001 C 710.317 539.3770000000002 693.391 507.9930000000001 680.932 449.27700000000016 C 647.109 289.8700000000001 645.446 126.85900000000015 592.217 64.48200000000014 C 533.424 -4.415999999999855 465.80199999999996 23.73000000000014 417.058 56.496000000000144 C 324.639 118.62000000000015 270.354 276.56300000000016 143.937 468.68300000000016 C 135.15400000000002 482.0310000000002 116.49200000000002 502.50600000000014 120.92800000000001 451.4950000000002 C 125.364 400.4850000000002 181.49800000000002 149.1000000000002 173.04600000000002 73.35400000000016 C 166.65200000000002 16.043000000000156 143.66500000000002 0.0020000000001516582 117.74500000000002 1.5631940186722204e-13 C 113.32200000000002 1.5631940186722204e-13 108.81900000000002 0.46600000000015634 104.29300000000002 1.2750000000001562 Z" stroke-linecap="round" />
</g>
<g transform="matrix(1 0 0 1 567.8 593.86)"  >
<path style="stroke: none; stroke-width: 1; stroke-dasharray: none; stroke-linecap: butt; stroke-dashoffset: 0; stroke-linejoin: round; stroke-miterlimit: 1.41; fill: rgb(225,5,66); fill-rule: nonzero; opacity: 1;" vector-effect="non-scaling-stroke"  transform=" translate(-439.46, -389.4)" d="M 355.186 389.397 C 355.186 435.94 392.91999999999996 473.674 439.464 473.674 C 486.008 473.674 523.741 435.94 523.741 389.397 C 523.741 342.852 486.008 305.118 439.464 305.118 C 392.92 305.118 355.186 342.852 355.186 389.397 Z" stroke-linecap="round" />
</g>
</svg>