<?xml version="1.0" encoding="UTF-8" standalone="no"?><!DOCTYPE svg PUBLIC "-//W3C//DTD SVG 1.1//EN" "http://www.w3.org/Graphics/SVG/1.1/DTD/svg11.dtd"><svg width="100%" height="100%" viewBox="0 0 824 972" version="1.1" xmlns="http://www.w3.org/2000/svg" xmlns:xlink="http://www.w3.org/1999/xlink" xml:space="preserve" style="fill-rule:evenodd;clip-rule:evenodd;stroke-linejoin:round;stroke-miterlimit:1.41421;"><g id="Layer-1"><g transform="matrix(1,0,0,1,-152.979,-86.718)"><path d="M169.613,975.418l0,82.649l-16.634,0l0,-194.277l16.634,0l0,25.47l0.52,0c4.938,-9.27 11.544,-16.352 19.817,-21.247c8.274,-4.895 17.609,-7.342 28.005,-7.342c8.49,0 16.092,1.538 22.806,4.613c6.714,3.076 12.389,7.429 17.024,13.06c4.635,5.632 8.187,12.476 10.656,20.533c2.469,8.057 3.703,17.11 3.703,27.16c0,11.002 -1.386,21.03 -4.158,30.083c-2.772,9.054 -6.757,16.829 -11.955,23.327c-5.199,6.497 -11.501,11.544 -18.908,15.139c-7.408,3.595 -15.746,5.393 -25.016,5.393c-18.713,0 -32.704,-8.187 -41.974,-24.561l-0.52,0Zm0,-33.917c0,6.064 1.018,11.76 3.054,17.088c2.036,5.328 4.873,10.007 8.512,14.035c3.638,4.029 8.035,7.212 13.19,9.551c5.154,2.34 10.851,3.509 17.088,3.509c6.671,0 12.692,-1.408 18.063,-4.223c5.372,-2.816 9.942,-6.823 13.71,-12.021c3.769,-5.198 6.671,-11.479 8.707,-18.843c2.036,-7.364 3.054,-15.594 3.054,-24.69c0,-7.798 -0.953,-14.837 -2.859,-21.118c-1.906,-6.281 -4.613,-11.63 -8.122,-16.049c-3.509,-4.418 -7.754,-7.797 -12.735,-10.136c-4.982,-2.339 -10.548,-3.508 -16.699,-3.508c-6.931,0 -13.168,1.277 -18.713,3.833c-5.545,2.556 -10.266,6.043 -14.165,10.461c-3.898,4.419 -6.887,9.595 -8.966,15.529c-2.08,5.935 -3.119,12.237 -3.119,18.908l0,17.674Z" style="fill:#fff;fill-rule:nonzero;"/><path d="M398.139,996.86l0,-22.612l-0.519,0c-9.01,17.154 -23.002,25.731 -41.975,25.731c-31.621,0 -47.432,-19.32 -47.432,-57.958l0,-78.231l16.634,0l0,75.112c0,15.94 2.837,27.723 8.512,35.346c5.674,7.624 14.359,11.436 26.055,11.436c5.718,0 10.937,-1.104 15.659,-3.314c4.722,-2.209 8.793,-5.328 12.215,-9.356c3.422,-4.029 6.086,-8.858 7.992,-14.49c1.906,-5.631 2.859,-11.869 2.859,-18.713l0,-76.021l16.634,0l0,133.07l-16.634,0Z" style="fill:#fff;fill-rule:nonzero;"/><path d="M520.236,995.301c-5.718,2.859 -11.956,4.288 -18.713,4.288c-21.486,0 -32.228,-12.389 -32.228,-37.166l0,-84.079l-23.392,0l0,-14.554l23.392,0l0,-33.528l16.634,-5.458l0,38.986l34.307,0l0,14.554l-34.307,0l0,81.48c0,9.01 1.472,15.507 4.418,19.493c2.945,3.985 7.927,5.977 14.944,5.977c5.198,0 10.18,-1.559 14.945,-4.678l0,14.685Z" style="fill:#fff;fill-rule:nonzero;"/><path d="M560.723,999.459c-3.466,0 -6.411,-1.213 -8.837,-3.639c-2.426,-2.425 -3.639,-5.371 -3.639,-8.836c0,-3.552 1.191,-6.541 3.574,-8.967c2.382,-2.426 5.35,-3.639 8.902,-3.639c1.732,0 3.357,0.325 4.873,0.975c1.516,0.65 2.837,1.516 3.963,2.599c1.126,1.083 2.036,2.404 2.729,3.964c0.693,1.559 1.04,3.248 1.04,5.068c0,1.732 -0.347,3.357 -1.04,4.873c-0.693,1.516 -1.603,2.837 -2.729,3.963c-1.126,1.127 -2.447,2.015 -3.963,2.664c-1.516,0.65 -3.141,0.975 -4.873,0.975Z" style="fill:#fff;fill-rule:nonzero;"/><path d="M706.4,996.86l0,-76.671c0,-30.062 -10.916,-45.093 -32.748,-45.093c-5.804,0 -11.176,1.147 -16.114,3.443c-4.938,2.296 -9.205,5.48 -12.8,9.552c-3.595,4.072 -6.411,8.901 -8.447,14.489c-2.036,5.588 -3.054,11.631 -3.054,18.128l0,76.152l-16.633,0l0,-133.07l16.633,0l0,23.131l0.52,0c9.876,-17.5 24.734,-26.25 44.573,-26.25c14.555,0 25.644,4.722 33.268,14.165c7.624,9.443 11.436,23.088 11.436,40.934l0,81.09l-16.634,0Z" style="fill:#fff;fill-rule:nonzero;"/><path d="M776.236,933.314c0.086,8.143 1.169,15.464 3.249,21.962c2.079,6.497 5.068,11.998 8.966,16.503c3.899,4.505 8.642,7.949 14.23,10.332c5.588,2.382 11.89,3.573 18.908,3.573c14.988,0 29.152,-5.241 42.494,-15.724l0,16.374c-12.735,9.097 -28.156,13.645 -46.263,13.645c-8.923,0 -17.023,-1.56 -24.301,-4.678c-7.277,-3.119 -13.471,-7.646 -18.583,-13.58c-5.111,-5.935 -9.053,-13.234 -11.825,-21.897c-2.773,-8.664 -4.159,-18.54 -4.159,-29.629c0,-9.963 1.516,-19.19 4.549,-27.68c3.032,-8.49 7.234,-15.832 12.605,-22.026c5.371,-6.195 11.739,-11.046 19.103,-14.555c7.364,-3.509 15.421,-5.263 24.171,-5.263c8.576,0 16.157,1.494 22.741,4.483c6.584,2.989 12.107,7.256 16.569,12.8c4.462,5.545 7.862,12.303 10.201,20.273c2.339,7.97 3.509,16.894 3.509,26.77l0,8.317l-96.164,0Zm79.01,-14.555c-0.26,-13.861 -3.552,-24.604 -9.876,-32.228c-6.324,-7.624 -15.118,-11.435 -26.38,-11.435c-5.631,0 -10.851,0.996 -15.659,2.988c-4.809,1.993 -9.032,4.874 -12.671,8.642c-3.638,3.769 -6.649,8.36 -9.031,13.775c-2.383,5.415 -4.05,11.501 -5.003,18.258l78.62,0Z" style="fill:#fff;fill-rule:nonzero;"/><path d="M967.596,995.301c-5.718,2.859 -11.955,4.288 -18.713,4.288c-21.485,0 -32.228,-12.389 -32.228,-37.166l0,-84.079l-23.391,0l0,-14.554l23.391,0l0,-33.528l16.634,-5.458l0,38.986l34.307,0l0,14.554l-34.307,0l0,81.48c0,9.01 1.473,15.507 4.418,19.493c2.946,3.985 7.927,5.977 14.945,5.977c5.198,0 10.179,-1.559 14.944,-4.678l0,14.685Z" style="fill:#fff;fill-rule:nonzero;"/></g><path d="M104.293,1.275c-37.115,6.626 -42.61,45.348 -45.464,57.663c-10.536,45.466 -0.555,224.279 -48.794,492.359c-11.597,64.458 -4.574,119.786 57.665,119.763c41.488,0 73.742,-3.603 177.427,-206.597c68.475,-132.221 153.075,-298.515 221.522,-311.55c44.663,-8.507 61.536,32.208 71.233,67.926c21.899,80.675 22.041,150.271 39.921,265.032c18.573,119.21 69.306,166.616 149.704,147.487c90.804,-21.604 111.418,-106.132 85.386,-117.545c-20.238,-8.873 -39.914,10 -65.426,15.523c-37.15,8.041 -54.076,-23.343 -66.535,-82.059c-33.823,-159.407 -35.486,-322.418 -88.715,-384.795c-58.793,-68.898 -126.415,-40.752 -175.159,-7.986c-92.419,62.124 -146.704,220.067 -273.121,412.187c-8.783,13.348 -27.445,33.823 -23.009,-17.188c4.436,-51.01 60.57,-302.395 52.118,-378.141c-6.394,-57.311 -29.381,-73.352 -55.301,-73.354c-4.423,0 -8.926,0.466 -13.452,1.275Z" style="fill:#e10542;fill-rule:nonzero;"/><path d="M355.186,389.397c0,46.543 37.734,84.277 84.278,84.277c46.544,0 84.277,-37.734 84.277,-84.277c0,-46.545 -37.733,-84.279 -84.277,-84.279c-46.544,0 -84.278,37.734 -84.278,84.279Z" style="fill:#e10542;fill-rule:nonzero;"/></g></svg>